HIERARCHY
ROOT Hips
{
	OFFSET -0.001795 -0.223333 0.028219
	CHANNELS 6 Xposition Yposition Zposition Zrotation Yrotation Xrotation 
	JOINT LeftUpLeg
	{
		OFFSET 0.069520 -0.091406 -0.006815
		CHANNELS 3 Zrotation Yrotation Xrotation
		JOINT LeftLeg
		{
			OFFSET 0.034277 -0.375199 -0.004496
			CHANNELS 3 Zrotation Yrotation Xrotation
			JOINT LeftFoot
			{
				OFFSET -0.013596 -0.397961 -0.043693
				CHANNELS 3 Zrotation Yrotation Xrotation
				JOINT LeftToe
				{
					OFFSET 0.026358 -0.055791 0.119288
					CHANNELS 3 Zrotation Yrotation Xrotation
					End Site
					{
						OFFSET 0.000000 0.000000 0.000000
					}
				}
			}
		}
	}
	JOINT RightUpLeg
	{
		OFFSET -0.067670 -0.090522 -0.004320
		CHANNELS 3 Zrotation Yrotation Xrotation
		JOINT RightLeg
		{
			OFFSET -0.038290 -0.382569 -0.008850
			CHANNELS 3 Zrotation Yrotation Xrotation
			JOINT RightFoot
			{
				OFFSET 0.015774 -0.398415 -0.042312
				CHANNELS 3 Zrotation Yrotation Xrotation
				JOINT RightToe
				{
					OFFSET -0.025372 -0.048144 0.123348
					CHANNELS 3 Zrotation Yrotation Xrotation
					End Site
					{
						OFFSET 0.000000 0.000000 0.000000
					}
				}
			}
		}
	}
	JOINT Spine
	{
		OFFSET -0.002533 0.108963 -0.026696
		CHANNELS 3 Zrotation Yrotation Xrotation
		JOINT Spine1
		{
			OFFSET 0.005487 0.135180 0.001092
			CHANNELS 3 Zrotation Yrotation Xrotation
			JOINT Spine2
			{
				OFFSET 0.001457 0.052922 0.025425
				CHANNELS 3 Zrotation Yrotation Xrotation
				JOINT Neck
				{
					OFFSET -0.002778 0.213870 -0.042857
					CHANNELS 3 Zrotation Yrotation Xrotation
					JOINT Head
					{
						OFFSET 0.005152 0.064970 0.051349
						CHANNELS 3 Zrotation Yrotation Xrotation
						End Site
						{
							OFFSET 0.000000 0.000000 0.000000
						}
					}
				}
				JOINT LeftShoulder
				{
					OFFSET 0.078845 0.121749 -0.034090
					CHANNELS 3 Zrotation Yrotation Xrotation
					JOINT LeftArm
					{
						OFFSET 0.090977 0.030469 -0.008868
						CHANNELS 3 Zrotation Yrotation Xrotation
						JOINT LeftForeArm
						{
							OFFSET 0.259612 -0.012772 -0.027456
							CHANNELS 3 Zrotation Yrotation Xrotation
							JOINT LeftHand
							{
								OFFSET 0.249234 0.008986 -0.001171
								CHANNELS 3 Zrotation Yrotation Xrotation
								End Site
								{
									OFFSET 0.000000 0.000000 0.000000
								}
							}
						}
					}
				}
				JOINT RightShoulder
				{
					OFFSET -0.081759 0.118833 -0.038615
					CHANNELS 3 Zrotation Yrotation Xrotation
					JOINT RightArm
					{
						OFFSET -0.096012 0.032551 -0.009143
						CHANNELS 3 Zrotation Yrotation Xrotation
						JOINT RightForeArm
						{
							OFFSET -0.253742 -0.013329 -0.021401
							CHANNELS 3 Zrotation Yrotation Xrotation
							JOINT RightHand
							{
								OFFSET -0.255298 0.007772 -0.005559
								CHANNELS 3 Zrotation Yrotation Xrotation
								End Site
								{
									OFFSET 0.000000 0.000000 0.000000
								}
							}
						}
					}
				}
			}
		}
	}
}
MOTION
Frames: 11
Frame Time: 0.050000
0.000000 0.922152 0.000000 -1.039654 9.981524 4.652128 6.933758 -1.018651 -17.132986 -5.462971 0.154227 24.137424 5.559234 16.885520 28.422475 0.000000 0.000000 0.000000 -0.988706 1.752701 -24.147634 -0.847005 0.534235 27.665762 -9.846154 -20.091457 42.249075 0.000000 0.000000 0.000000 1.185664 -1.786419 23.478324 0.867347 -1.141988 8.791216 -1.144278 -3.640022 5.726583 0.201557 0.427983 -7.364843 0.000000 0.000000 0.000000 -0.083039 -37.380374 13.387709 -21.113920 -46.021757 4.157873 23.479699 -10.674000 -1.710025 0.000000 0.000000 0.000000 6.315070 33.876385 14.023426 44.506918 54.062199 16.726999 -25.867980 18.427556 -2.989731 0.000000 0.000000 0.000000 
0.000161 0.922427 -0.005711 -1.567805 9.966982 5.066788 7.575258 -1.047303 -18.715761 -6.653821 0.492114 25.459947 7.983592 19.511496 27.828623 0.000000 0.000000 0.000000 -0.415791 1.934471 -25.308653 -0.765178 0.510393 28.198165 -10.243405 -20.539571 41.929297 0.000000 0.000000 0.000000 1.508494 -1.836624 23.136034 0.607794 -0.875934 7.501623 -0.906680 -4.564386 8.687089 -1.816899 1.768429 -6.285507 0.000000 0.000000 0.000000 -0.365865 -36.535790 13.199766 -20.461786 -47.881020 4.133813 21.406169 -8.031450 -1.105077 0.000000 0.000000 0.000000 5.362815 33.272387 13.356172 46.031670 56.913607 18.533243 -25.707779 16.586375 -2.591732 0.000000 0.000000 0.000000 
0.000261 0.922092 -0.011097 -1.833814 10.131751 4.685078 7.744486 -1.090110 -19.752286 -6.104143 0.262545 26.748471 6.847942 18.474126 30.272305 0.000000 0.000000 0.000000 -0.782846 1.867962 -25.791152 -0.617222 0.407927 30.099340 -6.003063 -15.941956 38.291621 0.000000 0.000000 0.000000 2.911412 -2.205106 23.377314 0.352520 -0.738882 7.507329 -1.659964 -5.123319 9.993870 -2.374243 2.184937 -6.851482 0.000000 0.000000 0.000000 -0.183666 -37.930329 13.681268 -19.766909 -47.248413 3.764885 18.928106 -6.653863 -0.768199 0.000000 0.000000 0.000000 4.497939 32.917867 12.895064 44.130566 57.570305 17.712413 -24.589794 17.066157 -2.563675 0.000000 0.000000 0.000000 
-0.000084 0.923364 -0.015862 -2.140887 9.413008 4.270487 8.035347 -1.017012 -19.730917 -6.308090 0.366857 27.724137 6.622034 17.960234 28.382116 0.000000 0.000000 0.000000 -0.210441 1.999470 -25.162418 -1.644799 0.892665 29.725732 -3.093604 -12.470240 35.377674 0.000000 0.000000 0.000000 2.701745 -2.149088 23.655202 -0.208433 -0.421192 7.789746 -1.677201 -6.099664 10.799025 -5.056377 4.102473 -6.797388 0.000000 0.000000 0.000000 1.326337 -36.975559 12.921197 -20.897238 -46.577005 4.143417 18.245364 -6.896089 -0.752522 0.000000 0.000000 0.000000 2.246463 32.794224 12.082810 46.807007 59.488765 19.840944 -25.085678 16.843632 -2.613901 0.000000 0.000000 0.000000 
-0.000924 0.924045 -0.019711 -1.949017 9.338001 3.847149 7.535806 -1.067590 -19.718354 -5.653758 0.142333 27.888437 6.266715 17.666629 29.685316 0.000000 0.000000 0.000000 -0.294462 1.960552 -24.726746 -2.147268 1.094392 29.540660 -1.850114 -10.903387 34.763180 0.000000 0.000000 0.000000 2.103508 -2.052496 24.176360 -0.136856 -0.483448 8.134926 -2.169333 -6.908615 11.011326 -6.010617 4.765771 -6.983138 0.000000 0.000000 0.000000 0.514411 -37.520000 13.431400 -20.246363 -44.803094 3.683795 18.388094 -7.544991 -0.837283 0.000000 0.000000 0.000000 1.765873 32.685623 11.811756 46.607754 58.584412 19.101271 -25.003122 19.603836 -3.167424 0.000000 0.000000 0.000000 
-0.002890 0.924912 -0.023043 -2.031347 9.674395 3.326347 7.821383 -1.008213 -19.160553 -5.359478 0.003206 27.970299 4.219245 15.167524 27.402901 0.000000 0.000000 0.000000 -0.087990 1.959838 -24.284051 -2.484743 1.188518 29.177370 -1.091956 -10.094165 35.941736 0.000000 0.000000 0.000000 1.784044 -2.037457 24.600233 -0.186622 -0.456520 8.050827 -2.764293 -7.449659 11.535973 -7.343477 5.805976 -5.992990 0.000000 0.000000 0.000000 1.132562 -37.521301 13.210365 -19.655750 -43.945079 3.388648 18.902726 -7.551151 -0.865423 0.000000 0.000000 0.000000 0.837697 31.832944 11.223210 48.195853 57.238507 19.146296 -25.442112 24.111312 -4.151994 0.000000 0.000000 0.000000 
-0.005813 0.924705 -0.026318 -2.097949 10.251643 2.980610 7.992260 -1.027967 -19.528210 -4.812047 -0.251930 28.202842 2.967219 14.072066 29.069799 0.000000 0.000000 0.000000 -0.074031 1.924547 -24.161127 -2.633430 1.186030 29.283807 0.224996 -8.473006 36.268464 0.000000 0.000000 0.000000 0.916817 -1.887820 24.865911 -0.194933 -0.446363 7.738114 -3.583678 -8.381885 12.065210 -8.589161 6.724431 -6.353849 0.000000 0.000000 0.000000 0.756956 -37.084138 13.180836 -17.139631 -42.221685 2.406639 20.513340 -7.348964 -0.919496 0.000000 0.000000 0.000000 1.475969 31.439875 11.140038 49.197057 54.991558 18.367074 -26.641910 29.371360 -5.555704 0.000000 0.000000 0.000000 
-0.009469 0.924366 -0.029923 -2.695752 10.018231 2.534162 8.706690 -0.943431 -19.883849 -4.538367 -0.331839 28.368323 3.336838 14.858045 32.013487 0.000000 0.000000 0.000000 0.566052 2.071745 -24.240060 -2.546350 1.178001 30.030986 1.420805 -6.751695 34.587182 0.000000 0.000000 0.000000 0.228874 -1.810446 25.882752 -0.545014 -0.212691 7.361082 -4.401094 -8.615992 12.168050 -8.609661 6.844781 -4.842434 0.000000 0.000000 0.000000 2.159552 -36.285122 12.414673 -13.938991 -40.542517 1.384534 22.050974 -7.437896 -1.012908 0.000000 0.000000 0.000000 2.171033 29.887572 10.656857 51.471993 52.962312 18.361129 -26.764422 35.978740 -7.085695 0.000000 0.000000 0.000000 
-0.013033 0.923903 -0.033433 -3.131363 10.099751 2.613721 9.310394 -0.901699 -20.414493 -4.472011 -0.367328 28.477445 3.554523 15.110590 31.992143 0.000000 0.000000 0.000000 1.209471 2.230586 -24.771369 -2.572454 1.179578 30.475976 1.538251 -6.398745 33.681030 0.000000 0.000000 0.000000 -0.506227 -1.674146 26.263177 -0.603220 -0.108509 6.274930 -5.149506 -8.605695 12.864350 -9.302192 7.432857 -4.736436 0.000000 0.000000 0.000000 2.954348 -35.837944 11.958801 -10.253673 -39.588571 0.341610 23.592882 -5.939970 -0.845503 0.000000 0.000000 0.000000 2.814390 28.698203 10.342933 52.873494 50.778190 17.818834 -27.007130 41.453229 -8.405842 0.000000 0.000000 0.000000 
-0.015986 0.923292 -0.036211 -3.626584 9.527255 2.354296 10.096978 -0.759186 -20.111421 -4.448131 -0.307010 28.176655 3.386645 14.826870 31.812960 0.000000 0.000000 0.000000 2.012637 2.457536 -25.203463 -2.622767 1.266867 31.383824 1.624999 -6.212472 32.783444 0.000000 0.000000 0.000000 -1.424958 -1.461984 26.862380 -0.963847 0.151939 5.459798 -5.717569 -8.232093 13.410791 -9.271091 7.430648 -4.858980 0.000000 0.000000 0.000000 4.499470 -35.116241 11.179314 -8.097320 -38.688680 -0.221204 24.962413 -5.176513 -0.768221 0.000000 0.000000 0.000000 3.207026 28.339184 10.287383 52.112838 49.973136 17.050821 -27.075381 44.620318 -9.173369 0.000000 0.000000 0.000000 
-0.018215 0.921822 -0.037918 -3.856446 9.070049 2.116236 10.511365 -0.672481 -19.874922 -4.528889 -0.248806 28.413686 3.498320 14.699101 30.455156 0.000000 0.000000 0.000000 2.494462 2.589988 -25.294803 -2.698385 1.352540 31.783220 1.580652 -6.171567 31.958657 0.000000 0.000000 0.000000 -2.163877 -1.253553 26.964038 -1.255214 0.301504 5.745844 -5.927941 -8.228560 12.650392 -9.506978 7.762868 -2.940265 0.000000 0.000000 0.000000 3.226891 -34.420018 11.360028 -6.160718 -37.103107 -0.696889 25.430364 -5.058078 -0.760528 0.000000 0.000000 0.000000 4.457918 28.430386 10.522872 51.520436 49.095955 16.403274 -26.608708 46.413842 -9.470877 0.000000 0.000000 0.000000 
